<?xml version="1.0" encoding="UTF-8" standalone="no"?>
<!DOCTYPE svg PUBLIC "-//W3C//DTD SVG 1.1//EN" "http://www.w3.org/Graphics/SVG/1.1/DTD/svg11.dtd">
<svg width="100%" height="100%" viewBox="0 0 512 512" version="1.1" xmlns="http://www.w3.org/2000/svg" xmlns:xlink="http://www.w3.org/1999/xlink" xml:space="preserve" xmlns:serif="http://www.serif.com/" style="fill-rule:evenodd;clip-rule:evenodd;stroke-linejoin:round;stroke-miterlimit:2;">
    <g id="no-col" serif:id="no col">
        <rect x="0" y="0" width="512" height="512" style="fill:none;"/>
        <g transform="matrix(1.89394,0,0,1.89394,-173.924,-274.303)">
            <g>
                <path d="M128,318L128,234L143,250L143,322L128,318Z" style="fill:white;"/>
                <g transform="matrix(0.528,0,0,0.528,91.832,144.832)">
                    <path d="M415.091,223.489L415.091,356.64C415.091,372.175 402.478,384.788 386.943,384.788L296.671,384.788C301.466,401.196 316.636,413.197 334.586,413.197L404.005,413.197C425.803,413.197 443.5,395.5 443.5,373.702L443.5,261.404C443.5,243.454 431.499,228.284 415.091,223.489Z" style="fill:white;"/>
                </g>
                <g transform="matrix(0.528,0,0,0.528,91.832,144.832)">
                    <path d="M96.909,224.894C80.295,231.331 68.5,247.475 68.5,266.352L68.5,368.754C68.5,393.283 88.414,413.197 112.943,413.197L191.057,413.197C209.934,413.197 226.079,401.402 232.515,384.788L125.057,384.788C109.522,384.788 96.909,372.175 96.909,356.64L96.909,224.894Z" style="fill:white;"/>
                </g>
                <g transform="matrix(1,0,0,1,-1,0)">
                    <path d="M142,227L152,238L152,249L168,249L187,216L142,227Z" style="fill:white;"/>
                </g>
                <g transform="matrix(1,0,0,1,-1.5,0)">
                    <path d="M187.5,249L212.5,249L240,206L211,211L187.5,249Z" style="fill:white;"/>
                </g>
                <path d="M231,249L256,249L289,197L261,200L231,249Z" style="fill:white;"/>
                <g transform="matrix(1,0,0,1,44,0)">
                    <path d="M231,249L256,249L273,222L261,200L231,249Z" style="fill:white;"/>
                </g>
            </g>
            <g transform="matrix(-0.7,-7.83302e-17,8.03088e-17,-0.555556,300.859,449.722)">
                <path d="M201,277.763C201,275.686 199.662,274 198.014,274L163.986,274C162.338,274 161,275.686 161,277.763L161,279.237C161,281.314 162.338,283 163.986,283L198.014,283C199.662,283 201,281.314 201,279.237L201,277.763Z" style="fill:white;"/>
            </g>
            <g transform="matrix(-0.9,-1.02823e-16,8.38153e-17,-0.555556,341.059,436.283)">
                <path d="M201,277.763C201,275.686 199.959,274 198.677,274L163.323,274C162.041,274 161,275.686 161,277.763L161,279.237C161,281.314 162.041,283 163.323,283L198.677,283C199.959,283 201,281.314 201,279.237L201,277.763Z" style="fill:white;"/>
            </g>
        </g>
    </g>
    <g>
        <g transform="matrix(1,0,0,1.03226,0,-16.5161)">
            <ellipse cx="256" cy="264" rx="256" ry="248" style="fill:rgb(25,35,44);"/>
        </g>
        <g transform="matrix(1.99495,0,0,1.99495,-196.854,-302.586)">
            <g>
                <path d="M128,318L128,234L143,250L143,322L128,318Z" style="fill:white;"/>
                <g transform="matrix(0.454515,0,0,0.827869,68.913,64.9672)">
                    <path d="M324,266.345C324,250.701 300.866,238 272.372,238L181.628,238C153.134,238 130,250.701 130,266.345L130,331.655C130,347.299 153.134,360 181.628,360L272.372,360C300.866,360 324,347.299 324,331.655L324,266.345Z" style="fill:white;"/>
                </g>
                <g transform="matrix(0.403918,0,0,0.827869,195.131,64.9672)">
                    <path d="M324,263.189C324,249.287 300.866,238 272.372,238L181.628,238C153.134,238 130,249.287 130,263.189L130,334.811C130,348.713 153.134,360 181.628,360L272.372,360C300.866,360 324,348.713 324,334.811L324,263.189Z" style="fill:white;"/>
                </g>
                <g transform="matrix(0.865979,0,0,0.909836,30.4227,20.459)">
                    <path d="M324,254.335C324,245.32 316.31,238 306.838,238L147.162,238C137.69,238 130,245.32 130,254.335L130,343.665C130,352.68 137.69,360 147.162,360L306.838,360C316.31,360 324,352.68 324,343.665L324,254.335Z" style="fill:rgb(25,35,44);"/>
                </g>
                <g transform="matrix(1,0,0,1,-1,0)">
                    <path d="M142,227L152,238L152,249L168,249L187,216L142,227Z" style="fill:white;"/>
                </g>
                <g transform="matrix(1,0,0,1,-1.5,0)">
                    <path d="M187.5,249L212.5,249L240,206L211,211L187.5,249Z" style="fill:white;"/>
                </g>
                <path d="M231,249L256,249L289,197L261,200L231,249Z" style="fill:white;"/>
                <g transform="matrix(1,0,0,1,44,0)">
                    <path d="M231,249L256,249L273,222L261,200L231,249Z" style="fill:white;"/>
                </g>
            </g>
            <g transform="matrix(-0.7,-7.83302e-17,8.03088e-17,-0.555556,300.859,449.722)">
                <path d="M201,277.763C201,275.686 199.662,274 198.014,274L163.986,274C162.338,274 161,275.686 161,277.763L161,279.237C161,281.314 162.338,283 163.986,283L198.014,283C199.662,283 201,281.314 201,279.237L201,277.763Z" style="fill:white;"/>
            </g>
            <g transform="matrix(-0.9,-1.02823e-16,8.38153e-17,-0.555556,341.059,436.283)">
                <path d="M201,277.763C201,275.686 199.959,274 198.677,274L163.323,274C162.041,274 161,275.686 161,277.763L161,279.237C161,281.314 162.041,283 163.323,283L198.677,283C199.959,283 201,281.314 201,279.237L201,277.763Z" style="fill:white;"/>
            </g>
        </g>
    </g>
</svg>
